<mxfile host="app.diagrams.net" agent="Mozilla/5.0 (Macintosh; Intel Mac OS X 10_15_7) AppleWebKit/605.1.15 (KHTML, like Gecko) Version/17.5 Safari/605.1.15" version="26.0.16">
  <diagram name="Page-1" id="OA3iveXcaDU1x4uG2Ehj">
    <mxGraphModel dx="1122" dy="761" grid="1" gridSize="10" guides="1" tooltips="1" connect="1" arrows="1" fold="1" page="1" pageScale="1" pageWidth="1100" pageHeight="850" background="#FFFFFF" math="0" shadow="0">
      <root>
        <mxCell id="0" />
        <mxCell id="1" parent="0" />
        <mxCell id="9fTh9ANXRrdNOfxA_5ho-1" value="&lt;p style=&quot;margin: 0.0px 0.0px 0.0px 0.0px; font: 13.0px &#39;Helvetica Neue&#39;&quot;&gt;Country&lt;/p&gt;" style="rounded=0;whiteSpace=wrap;html=1;" vertex="1" parent="1">
          <mxGeometry x="160" y="60" width="120" height="60" as="geometry" />
        </mxCell>
        <mxCell id="9fTh9ANXRrdNOfxA_5ho-2" value="&lt;p style=&quot;margin: 0px; font-style: normal; font-variant-caps: normal; font-stretch: normal; font-size: 13px; line-height: normal; font-family: &amp;quot;Helvetica Neue&amp;quot;; font-size-adjust: none; font-kerning: auto; font-variant-alternates: normal; font-variant-ligatures: normal; font-variant-numeric: normal; font-variant-east-asian: normal; font-variant-position: normal; font-variant-emoji: normal; font-feature-settings: normal; font-optical-sizing: auto; font-variation-settings: normal;&quot;&gt;Match&lt;/p&gt;" style="rounded=0;whiteSpace=wrap;html=1;" vertex="1" parent="1">
          <mxGeometry x="160" y="240" width="120" height="60" as="geometry" />
        </mxCell>
        <mxCell id="9fTh9ANXRrdNOfxA_5ho-3" value="&lt;p style=&quot;margin: 0px; font-style: normal; font-variant-caps: normal; font-stretch: normal; font-size: 13px; line-height: normal; font-family: &amp;quot;Helvetica Neue&amp;quot;; font-size-adjust: none; font-kerning: auto; font-variant-alternates: normal; font-variant-ligatures: normal; font-variant-numeric: normal; font-variant-east-asian: normal; font-variant-position: normal; font-variant-emoji: normal; font-feature-settings: normal; font-optical-sizing: auto; font-variation-settings: normal;&quot;&gt;Team_Attributes&lt;/p&gt;" style="whiteSpace=wrap;html=1;" vertex="1" parent="1">
          <mxGeometry x="740" y="320" width="120" height="60" as="geometry" />
        </mxCell>
        <mxCell id="9fTh9ANXRrdNOfxA_5ho-5" value="&lt;p style=&quot;margin: 0px; font-style: normal; font-variant-caps: normal; font-stretch: normal; font-size: 13px; line-height: normal; font-family: &amp;quot;Helvetica Neue&amp;quot;; font-size-adjust: none; font-kerning: auto; font-variant-alternates: normal; font-variant-ligatures: normal; font-variant-numeric: normal; font-variant-east-asian: normal; font-variant-position: normal; font-variant-emoji: normal; font-feature-settings: normal; font-optical-sizing: auto; font-variation-settings: normal;&quot;&gt;League&lt;/p&gt;" style="whiteSpace=wrap;html=1;" vertex="1" parent="1">
          <mxGeometry x="160" y="435" width="120" height="60" as="geometry" />
        </mxCell>
        <mxCell id="9fTh9ANXRrdNOfxA_5ho-6" value="&lt;p style=&quot;margin: 0px; font-style: normal; font-variant-caps: normal; font-stretch: normal; font-size: 13px; line-height: normal; font-family: &amp;quot;Helvetica Neue&amp;quot;; font-size-adjust: none; font-kerning: auto; font-variant-alternates: normal; font-variant-ligatures: normal; font-variant-numeric: normal; font-variant-east-asian: normal; font-variant-position: normal; font-variant-emoji: normal; font-feature-settings: normal; font-optical-sizing: auto; font-variation-settings: normal;&quot;&gt;Player&lt;/p&gt;" style="whiteSpace=wrap;html=1;" vertex="1" parent="1">
          <mxGeometry x="450" y="65" width="120" height="60" as="geometry" />
        </mxCell>
        <mxCell id="9fTh9ANXRrdNOfxA_5ho-8" value="&lt;p style=&quot;margin: 0px; font-style: normal; font-variant-caps: normal; font-stretch: normal; font-size: 13px; line-height: normal; font-family: &amp;quot;Helvetica Neue&amp;quot;; font-size-adjust: none; font-kerning: auto; font-variant-alternates: normal; font-variant-ligatures: normal; font-variant-numeric: normal; font-variant-east-asian: normal; font-variant-position: normal; font-variant-emoji: normal; font-feature-settings: normal; font-optical-sizing: auto; font-variation-settings: normal;&quot;&gt;Team&lt;/p&gt;" style="whiteSpace=wrap;html=1;" vertex="1" parent="1">
          <mxGeometry x="480" y="320" width="120" height="60" as="geometry" />
        </mxCell>
        <mxCell id="9fTh9ANXRrdNOfxA_5ho-13" value="" style="edgeStyle=orthogonalEdgeStyle;rounded=0;orthogonalLoop=1;jettySize=auto;html=1;endArrow=none;startFill=0;" edge="1" parent="1" source="9fTh9ANXRrdNOfxA_5ho-9" target="9fTh9ANXRrdNOfxA_5ho-1">
          <mxGeometry relative="1" as="geometry">
            <Array as="points">
              <mxPoint x="175" y="120" />
              <mxPoint x="175" y="120" />
            </Array>
          </mxGeometry>
        </mxCell>
        <mxCell id="9fTh9ANXRrdNOfxA_5ho-9" value="&lt;p style=&quot;margin: 0.0px 0.0px 0.0px 0.0px; font: 13.0px &#39;Helvetica Neue&#39;&quot;&gt;&lt;u&gt;id&lt;/u&gt;&lt;/p&gt;" style="ellipse;whiteSpace=wrap;html=1;" vertex="1" parent="1">
          <mxGeometry x="140" width="70" height="50" as="geometry" />
        </mxCell>
        <mxCell id="9fTh9ANXRrdNOfxA_5ho-15" value="" style="edgeStyle=orthogonalEdgeStyle;rounded=0;orthogonalLoop=1;jettySize=auto;html=1;endArrow=none;startFill=0;" edge="1" parent="1" source="9fTh9ANXRrdNOfxA_5ho-11" target="9fTh9ANXRrdNOfxA_5ho-1">
          <mxGeometry relative="1" as="geometry">
            <Array as="points">
              <mxPoint x="265" y="120" />
              <mxPoint x="265" y="120" />
            </Array>
          </mxGeometry>
        </mxCell>
        <mxCell id="9fTh9ANXRrdNOfxA_5ho-11" value="&lt;p style=&quot;margin: 0.0px 0.0px 0.0px 0.0px; font: 13.0px &#39;Helvetica Neue&#39;&quot;&gt;name&lt;/p&gt;" style="ellipse;whiteSpace=wrap;html=1;" vertex="1" parent="1">
          <mxGeometry x="230" width="70" height="50" as="geometry" />
        </mxCell>
        <mxCell id="9fTh9ANXRrdNOfxA_5ho-83" value="&lt;p style=&quot;margin: 0px; font-style: normal; font-variant-caps: normal; font-stretch: normal; font-size: 13px; line-height: normal; font-family: &amp;quot;Helvetica Neue&amp;quot;; font-size-adjust: none; font-kerning: auto; font-variant-alternates: normal; font-variant-ligatures: normal; font-variant-numeric: normal; font-variant-east-asian: normal; font-variant-position: normal; font-variant-emoji: normal; font-feature-settings: normal; font-optical-sizing: auto; font-variation-settings: normal;&quot;&gt;Player_Attributes&lt;/p&gt;" style="whiteSpace=wrap;html=1;" vertex="1" parent="1">
          <mxGeometry x="730" y="60" width="120" height="60" as="geometry" />
        </mxCell>
        <mxCell id="9fTh9ANXRrdNOfxA_5ho-89" value="" style="edgeStyle=orthogonalEdgeStyle;rounded=0;orthogonalLoop=1;jettySize=auto;html=1;entryX=0.5;entryY=1;entryDx=0;entryDy=0;endArrow=none;startFill=0;" edge="1" parent="1" source="9fTh9ANXRrdNOfxA_5ho-88" target="9fTh9ANXRrdNOfxA_5ho-1">
          <mxGeometry relative="1" as="geometry">
            <mxPoint x="220" y="140" as="targetPoint" />
          </mxGeometry>
        </mxCell>
        <mxCell id="9fTh9ANXRrdNOfxA_5ho-90" value="" style="edgeStyle=orthogonalEdgeStyle;rounded=0;orthogonalLoop=1;jettySize=auto;html=1;endArrow=none;startFill=0;" edge="1" parent="1" source="9fTh9ANXRrdNOfxA_5ho-88" target="9fTh9ANXRrdNOfxA_5ho-2">
          <mxGeometry relative="1" as="geometry" />
        </mxCell>
        <mxCell id="9fTh9ANXRrdNOfxA_5ho-88" value="Hosts" style="rhombus;whiteSpace=wrap;html=1;" vertex="1" parent="1">
          <mxGeometry x="195" y="160" width="50" height="50" as="geometry" />
        </mxCell>
        <mxCell id="9fTh9ANXRrdNOfxA_5ho-92" value="" style="edgeStyle=orthogonalEdgeStyle;rounded=0;orthogonalLoop=1;jettySize=auto;html=1;endArrow=none;startFill=0;" edge="1" parent="1" source="9fTh9ANXRrdNOfxA_5ho-91" target="9fTh9ANXRrdNOfxA_5ho-2">
          <mxGeometry relative="1" as="geometry" />
        </mxCell>
        <mxCell id="9fTh9ANXRrdNOfxA_5ho-93" value="" style="edgeStyle=orthogonalEdgeStyle;rounded=0;orthogonalLoop=1;jettySize=auto;html=1;endArrow=none;startFill=0;" edge="1" parent="1" source="9fTh9ANXRrdNOfxA_5ho-91" target="9fTh9ANXRrdNOfxA_5ho-5">
          <mxGeometry relative="1" as="geometry" />
        </mxCell>
        <mxCell id="9fTh9ANXRrdNOfxA_5ho-91" value="Organizes" style="rhombus;whiteSpace=wrap;html=1;" vertex="1" parent="1">
          <mxGeometry x="187.5" y="340" width="65" height="65" as="geometry" />
        </mxCell>
        <mxCell id="9fTh9ANXRrdNOfxA_5ho-95" value="" style="edgeStyle=orthogonalEdgeStyle;rounded=0;orthogonalLoop=1;jettySize=auto;html=1;endArrow=none;startFill=0;" edge="1" parent="1" source="9fTh9ANXRrdNOfxA_5ho-94" target="9fTh9ANXRrdNOfxA_5ho-1">
          <mxGeometry relative="1" as="geometry">
            <Array as="points">
              <mxPoint x="65" y="90" />
            </Array>
          </mxGeometry>
        </mxCell>
        <mxCell id="9fTh9ANXRrdNOfxA_5ho-96" value="" style="edgeStyle=orthogonalEdgeStyle;rounded=0;orthogonalLoop=1;jettySize=auto;html=1;endArrow=none;startFill=0;" edge="1" parent="1" source="9fTh9ANXRrdNOfxA_5ho-94" target="9fTh9ANXRrdNOfxA_5ho-5">
          <mxGeometry relative="1" as="geometry">
            <Array as="points">
              <mxPoint x="65" y="465" />
            </Array>
          </mxGeometry>
        </mxCell>
        <mxCell id="9fTh9ANXRrdNOfxA_5ho-94" value="Has" style="rhombus;whiteSpace=wrap;html=1;" vertex="1" parent="1">
          <mxGeometry x="40" y="270" width="50" height="50" as="geometry" />
        </mxCell>
        <mxCell id="9fTh9ANXRrdNOfxA_5ho-98" value="" style="edgeStyle=orthogonalEdgeStyle;rounded=0;orthogonalLoop=1;jettySize=auto;html=1;endArrow=none;startFill=0;" edge="1" parent="1" source="9fTh9ANXRrdNOfxA_5ho-97" target="9fTh9ANXRrdNOfxA_5ho-2">
          <mxGeometry relative="1" as="geometry" />
        </mxCell>
        <mxCell id="9fTh9ANXRrdNOfxA_5ho-99" value="" style="edgeStyle=orthogonalEdgeStyle;rounded=0;orthogonalLoop=1;jettySize=auto;html=1;endArrow=none;startFill=0;" edge="1" parent="1" source="9fTh9ANXRrdNOfxA_5ho-97" target="9fTh9ANXRrdNOfxA_5ho-8">
          <mxGeometry relative="1" as="geometry" />
        </mxCell>
        <mxCell id="9fTh9ANXRrdNOfxA_5ho-97" value="Participate" style="rhombus;whiteSpace=wrap;html=1;" vertex="1" parent="1">
          <mxGeometry x="336" y="245" width="64" height="65" as="geometry" />
        </mxCell>
        <mxCell id="9fTh9ANXRrdNOfxA_5ho-101" value="" style="edgeStyle=orthogonalEdgeStyle;rounded=0;orthogonalLoop=1;jettySize=auto;html=1;entryX=0.833;entryY=0;entryDx=0;entryDy=0;entryPerimeter=0;endArrow=none;startFill=0;" edge="1" parent="1" source="9fTh9ANXRrdNOfxA_5ho-100" target="9fTh9ANXRrdNOfxA_5ho-2">
          <mxGeometry relative="1" as="geometry">
            <Array as="points">
              <mxPoint x="345" y="200" />
              <mxPoint x="260" y="200" />
            </Array>
          </mxGeometry>
        </mxCell>
        <mxCell id="9fTh9ANXRrdNOfxA_5ho-102" value="" style="edgeStyle=orthogonalEdgeStyle;rounded=0;orthogonalLoop=1;jettySize=auto;html=1;endArrow=none;startFill=0;" edge="1" parent="1" target="9fTh9ANXRrdNOfxA_5ho-6">
          <mxGeometry relative="1" as="geometry">
            <mxPoint x="370" y="160" as="sourcePoint" />
          </mxGeometry>
        </mxCell>
        <mxCell id="9fTh9ANXRrdNOfxA_5ho-100" value="In" style="rhombus;whiteSpace=wrap;html=1;" vertex="1" parent="1">
          <mxGeometry x="320" y="130" width="50" height="50" as="geometry" />
        </mxCell>
        <mxCell id="9fTh9ANXRrdNOfxA_5ho-107" value="" style="edgeStyle=orthogonalEdgeStyle;rounded=0;orthogonalLoop=1;jettySize=auto;html=1;endArrow=none;startFill=0;" edge="1" parent="1" source="9fTh9ANXRrdNOfxA_5ho-103" target="9fTh9ANXRrdNOfxA_5ho-6">
          <mxGeometry relative="1" as="geometry" />
        </mxCell>
        <mxCell id="9fTh9ANXRrdNOfxA_5ho-108" value="" style="edgeStyle=orthogonalEdgeStyle;rounded=0;orthogonalLoop=1;jettySize=auto;html=1;endArrow=none;startFill=0;" edge="1" parent="1" source="9fTh9ANXRrdNOfxA_5ho-103">
          <mxGeometry relative="1" as="geometry">
            <mxPoint x="730" y="95" as="targetPoint" />
          </mxGeometry>
        </mxCell>
        <mxCell id="9fTh9ANXRrdNOfxA_5ho-103" value="Has" style="rhombus;whiteSpace=wrap;html=1;" vertex="1" parent="1">
          <mxGeometry x="634" y="70" width="50" height="50" as="geometry" />
        </mxCell>
        <mxCell id="9fTh9ANXRrdNOfxA_5ho-105" value="" style="edgeStyle=orthogonalEdgeStyle;rounded=0;orthogonalLoop=1;jettySize=auto;html=1;endArrow=none;startFill=0;" edge="1" parent="1" source="9fTh9ANXRrdNOfxA_5ho-104" target="9fTh9ANXRrdNOfxA_5ho-8">
          <mxGeometry relative="1" as="geometry" />
        </mxCell>
        <mxCell id="9fTh9ANXRrdNOfxA_5ho-106" value="" style="edgeStyle=orthogonalEdgeStyle;rounded=0;orthogonalLoop=1;jettySize=auto;html=1;endArrow=none;startFill=0;" edge="1" parent="1" source="9fTh9ANXRrdNOfxA_5ho-104" target="9fTh9ANXRrdNOfxA_5ho-3">
          <mxGeometry relative="1" as="geometry" />
        </mxCell>
        <mxCell id="9fTh9ANXRrdNOfxA_5ho-104" value="Has" style="rhombus;whiteSpace=wrap;html=1;" vertex="1" parent="1">
          <mxGeometry x="640" y="325" width="50" height="50" as="geometry" />
        </mxCell>
        <mxCell id="9fTh9ANXRrdNOfxA_5ho-116" value="" style="edgeStyle=orthogonalEdgeStyle;rounded=0;orthogonalLoop=1;jettySize=auto;html=1;endArrow=none;startFill=0;" edge="1" parent="1" source="9fTh9ANXRrdNOfxA_5ho-109" target="9fTh9ANXRrdNOfxA_5ho-5">
          <mxGeometry relative="1" as="geometry" />
        </mxCell>
        <mxCell id="9fTh9ANXRrdNOfxA_5ho-109" value="&lt;p style=&quot;margin: 0.0px 0.0px 0.0px 0.0px; font: 13.0px &#39;Helvetica Neue&#39;&quot;&gt;&lt;u&gt;id&lt;/u&gt;&lt;/p&gt;" style="ellipse;whiteSpace=wrap;html=1;" vertex="1" parent="1">
          <mxGeometry x="140" y="530" width="70" height="50" as="geometry" />
        </mxCell>
        <mxCell id="9fTh9ANXRrdNOfxA_5ho-114" value="" style="edgeStyle=orthogonalEdgeStyle;rounded=0;orthogonalLoop=1;jettySize=auto;html=1;endArrow=none;startFill=0;" edge="1" parent="1" source="9fTh9ANXRrdNOfxA_5ho-110" target="9fTh9ANXRrdNOfxA_5ho-5">
          <mxGeometry relative="1" as="geometry">
            <Array as="points">
              <mxPoint x="280" y="517" />
              <mxPoint x="250" y="517" />
            </Array>
          </mxGeometry>
        </mxCell>
        <mxCell id="9fTh9ANXRrdNOfxA_5ho-110" value="&lt;p style=&quot;margin: 0.0px 0.0px 0.0px 0.0px; font: 13.0px &#39;Helvetica Neue&#39;&quot;&gt;Contre_Id&lt;/p&gt;" style="ellipse;whiteSpace=wrap;html=1;" vertex="1" parent="1">
          <mxGeometry x="245" y="540" width="70" height="50" as="geometry" />
        </mxCell>
        <mxCell id="9fTh9ANXRrdNOfxA_5ho-112" value="" style="edgeStyle=orthogonalEdgeStyle;rounded=0;orthogonalLoop=1;jettySize=auto;html=1;endArrow=none;startFill=0;" edge="1" parent="1" source="9fTh9ANXRrdNOfxA_5ho-111" target="9fTh9ANXRrdNOfxA_5ho-5">
          <mxGeometry relative="1" as="geometry" />
        </mxCell>
        <mxCell id="9fTh9ANXRrdNOfxA_5ho-111" value="&lt;p style=&quot;margin: 0.0px 0.0px 0.0px 0.0px; font: 13.0px &#39;Helvetica Neue&#39;&quot;&gt;name&lt;/p&gt;" style="ellipse;whiteSpace=wrap;html=1;" vertex="1" parent="1">
          <mxGeometry x="320" y="440" width="70" height="50" as="geometry" />
        </mxCell>
        <mxCell id="9fTh9ANXRrdNOfxA_5ho-122" value="" style="edgeStyle=orthogonalEdgeStyle;rounded=0;orthogonalLoop=1;jettySize=auto;html=1;endArrow=none;startFill=0;" edge="1" parent="1" source="9fTh9ANXRrdNOfxA_5ho-117" target="9fTh9ANXRrdNOfxA_5ho-8">
          <mxGeometry relative="1" as="geometry" />
        </mxCell>
        <mxCell id="9fTh9ANXRrdNOfxA_5ho-117" value="&lt;p style=&quot;margin: 0px; font-style: normal; font-variant-caps: normal; font-stretch: normal; font-size: 13px; line-height: normal; font-family: &amp;quot;Helvetica Neue&amp;quot;; font-size-adjust: none; font-kerning: auto; font-variant-alternates: normal; font-variant-ligatures: normal; font-variant-numeric: normal; font-variant-east-asian: normal; font-variant-position: normal; font-variant-emoji: normal; font-feature-settings: normal; font-optical-sizing: auto; font-variation-settings: normal;&quot;&gt;team_long_name&lt;/p&gt;" style="ellipse;whiteSpace=wrap;html=1;" vertex="1" parent="1">
          <mxGeometry x="600" y="420" width="110" height="60" as="geometry" />
        </mxCell>
        <mxCell id="9fTh9ANXRrdNOfxA_5ho-120" value="" style="edgeStyle=orthogonalEdgeStyle;rounded=0;orthogonalLoop=1;jettySize=auto;html=1;endArrow=none;startFill=0;" edge="1" parent="1" source="9fTh9ANXRrdNOfxA_5ho-118" target="9fTh9ANXRrdNOfxA_5ho-8">
          <mxGeometry relative="1" as="geometry" />
        </mxCell>
        <mxCell id="9fTh9ANXRrdNOfxA_5ho-118" value="&lt;p style=&quot;margin: 0.0px 0.0px 0.0px 0.0px; font: 13.0px &#39;Helvetica Neue&#39;&quot;&gt;team_api_key&lt;/p&gt;" style="ellipse;whiteSpace=wrap;html=1;" vertex="1" parent="1">
          <mxGeometry x="410" y="420" width="90" height="60" as="geometry" />
        </mxCell>
        <mxCell id="9fTh9ANXRrdNOfxA_5ho-121" value="" style="edgeStyle=orthogonalEdgeStyle;rounded=0;orthogonalLoop=1;jettySize=auto;html=1;endArrow=none;startFill=0;" edge="1" parent="1" source="9fTh9ANXRrdNOfxA_5ho-119" target="9fTh9ANXRrdNOfxA_5ho-8">
          <mxGeometry relative="1" as="geometry" />
        </mxCell>
        <mxCell id="9fTh9ANXRrdNOfxA_5ho-119" value="&lt;p style=&quot;margin: 0px; font-style: normal; font-variant-caps: normal; font-stretch: normal; font-size: 13px; line-height: normal; font-family: &amp;quot;Helvetica Neue&amp;quot;; font-size-adjust: none; font-kerning: auto; font-variant-alternates: normal; font-variant-ligatures: normal; font-variant-numeric: normal; font-variant-east-asian: normal; font-variant-position: normal; font-variant-emoji: normal; font-feature-settings: normal; font-optical-sizing: auto; font-variation-settings: normal;&quot;&gt;team_fifa_api_id&lt;/p&gt;" style="ellipse;whiteSpace=wrap;html=1;" vertex="1" parent="1">
          <mxGeometry x="500" y="440" width="100" height="60" as="geometry" />
        </mxCell>
        <mxCell id="9fTh9ANXRrdNOfxA_5ho-124" value="" style="edgeStyle=orthogonalEdgeStyle;rounded=0;orthogonalLoop=1;jettySize=auto;html=1;endArrow=none;startFill=0;" edge="1" parent="1" source="9fTh9ANXRrdNOfxA_5ho-123">
          <mxGeometry relative="1" as="geometry">
            <mxPoint x="580" y="320" as="targetPoint" />
          </mxGeometry>
        </mxCell>
        <mxCell id="9fTh9ANXRrdNOfxA_5ho-123" value="&lt;p style=&quot;margin: 0px; font-style: normal; font-variant-caps: normal; font-stretch: normal; font-size: 13px; line-height: normal; font-family: &amp;quot;Helvetica Neue&amp;quot;; font-size-adjust: none; font-kerning: auto; font-variant-alternates: normal; font-variant-ligatures: normal; font-variant-numeric: normal; font-variant-east-asian: normal; font-variant-position: normal; font-variant-emoji: normal; font-feature-settings: normal; font-optical-sizing: auto; font-variation-settings: normal;&quot;&gt;team_short_name&lt;/p&gt;" style="ellipse;whiteSpace=wrap;html=1;" vertex="1" parent="1">
          <mxGeometry x="550" y="230" width="110" height="60" as="geometry" />
        </mxCell>
        <mxCell id="9fTh9ANXRrdNOfxA_5ho-126" value="" style="edgeStyle=orthogonalEdgeStyle;rounded=0;orthogonalLoop=1;jettySize=auto;html=1;endArrow=none;startFill=0;" edge="1" parent="1" source="9fTh9ANXRrdNOfxA_5ho-125" target="9fTh9ANXRrdNOfxA_5ho-8">
          <mxGeometry relative="1" as="geometry" />
        </mxCell>
        <mxCell id="9fTh9ANXRrdNOfxA_5ho-125" value="&lt;p style=&quot;margin: 0.0px 0.0px 0.0px 0.0px; font: 13.0px &#39;Helvetica Neue&#39;&quot;&gt;&lt;u&gt;id&lt;/u&gt;&lt;/p&gt;" style="ellipse;whiteSpace=wrap;html=1;" vertex="1" parent="1">
          <mxGeometry x="380" y="325" width="70" height="50" as="geometry" />
        </mxCell>
        <mxCell id="9fTh9ANXRrdNOfxA_5ho-128" value="" style="edgeStyle=orthogonalEdgeStyle;rounded=0;orthogonalLoop=1;jettySize=auto;html=1;endArrow=none;startFill=0;" edge="1" parent="1" source="9fTh9ANXRrdNOfxA_5ho-127" target="9fTh9ANXRrdNOfxA_5ho-6">
          <mxGeometry relative="1" as="geometry" />
        </mxCell>
        <mxCell id="9fTh9ANXRrdNOfxA_5ho-127" value="&lt;p style=&quot;margin: 0.0px 0.0px 0.0px 0.0px; font: 13.0px &#39;Helvetica Neue&#39;&quot;&gt;&lt;u&gt;id&lt;/u&gt;&lt;/p&gt;" style="ellipse;whiteSpace=wrap;html=1;" vertex="1" parent="1">
          <mxGeometry x="360" y="70" width="70" height="50" as="geometry" />
        </mxCell>
        <mxCell id="9fTh9ANXRrdNOfxA_5ho-140" value="" style="edgeStyle=orthogonalEdgeStyle;rounded=0;orthogonalLoop=1;jettySize=auto;html=1;entryX=0;entryY=0.083;entryDx=0;entryDy=0;entryPerimeter=0;endArrow=none;startFill=0;" edge="1" parent="1" source="9fTh9ANXRrdNOfxA_5ho-129" target="9fTh9ANXRrdNOfxA_5ho-6">
          <mxGeometry relative="1" as="geometry">
            <Array as="points">
              <mxPoint x="415" y="70" />
            </Array>
          </mxGeometry>
        </mxCell>
        <mxCell id="9fTh9ANXRrdNOfxA_5ho-129" value="&lt;p style=&quot;margin: 0px; font-style: normal; font-variant-caps: normal; font-stretch: normal; font-size: 13px; line-height: normal; font-family: &amp;quot;Helvetica Neue&amp;quot;; font-size-adjust: none; font-kerning: auto; font-variant-alternates: normal; font-variant-ligatures: normal; font-variant-numeric: normal; font-variant-east-asian: normal; font-variant-position: normal; font-variant-emoji: normal; font-feature-settings: normal; font-optical-sizing: auto; font-variation-settings: normal;&quot;&gt;player_api_id&lt;/p&gt;" style="ellipse;whiteSpace=wrap;html=1;" vertex="1" parent="1">
          <mxGeometry x="370" y="5" width="90" height="50" as="geometry" />
        </mxCell>
        <mxCell id="9fTh9ANXRrdNOfxA_5ho-139" value="" style="edgeStyle=orthogonalEdgeStyle;rounded=0;orthogonalLoop=1;jettySize=auto;html=1;endArrow=none;startFill=0;entryX=0.5;entryY=0;entryDx=0;entryDy=0;" edge="1" parent="1" source="9fTh9ANXRrdNOfxA_5ho-130" target="9fTh9ANXRrdNOfxA_5ho-6">
          <mxGeometry relative="1" as="geometry">
            <Array as="points">
              <mxPoint x="530" y="65" />
            </Array>
          </mxGeometry>
        </mxCell>
        <mxCell id="9fTh9ANXRrdNOfxA_5ho-130" value="&lt;p style=&quot;margin: 0px; font-style: normal; font-variant-caps: normal; font-stretch: normal; font-size: 13px; line-height: normal; font-family: &amp;quot;Helvetica Neue&amp;quot;; font-size-adjust: none; font-kerning: auto; font-variant-alternates: normal; font-variant-ligatures: normal; font-variant-numeric: normal; font-variant-east-asian: normal; font-variant-position: normal; font-variant-emoji: normal; font-feature-settings: normal; font-optical-sizing: auto; font-variation-settings: normal;&quot;&gt;player_name&lt;/p&gt;" style="ellipse;whiteSpace=wrap;html=1;" vertex="1" parent="1">
          <mxGeometry x="470" y="5" width="80" height="50" as="geometry" />
        </mxCell>
        <mxCell id="9fTh9ANXRrdNOfxA_5ho-131" value="&lt;p style=&quot;margin: 0px; font-style: normal; font-variant-caps: normal; font-stretch: normal; font-size: 13px; line-height: normal; font-family: &amp;quot;Helvetica Neue&amp;quot;; font-size-adjust: none; font-kerning: auto; font-variant-alternates: normal; font-variant-ligatures: normal; font-variant-numeric: normal; font-variant-east-asian: normal; font-variant-position: normal; font-variant-emoji: normal; font-feature-settings: normal; font-optical-sizing: auto; font-variation-settings: normal;&quot;&gt;player_fifa_api_id&lt;/p&gt;" style="ellipse;whiteSpace=wrap;html=1;" vertex="1" parent="1">
          <mxGeometry x="580" y="5" width="104" height="50" as="geometry" />
        </mxCell>
        <mxCell id="9fTh9ANXRrdNOfxA_5ho-135" value="" style="edgeStyle=orthogonalEdgeStyle;rounded=0;orthogonalLoop=1;jettySize=auto;html=1;endArrow=none;startFill=0;" edge="1" parent="1" source="9fTh9ANXRrdNOfxA_5ho-132">
          <mxGeometry relative="1" as="geometry">
            <mxPoint x="565" y="125" as="targetPoint" />
          </mxGeometry>
        </mxCell>
        <mxCell id="9fTh9ANXRrdNOfxA_5ho-132" value="&lt;p style=&quot;margin: 0px; font-style: normal; font-variant-caps: normal; font-stretch: normal; font-size: 13px; line-height: normal; font-family: &amp;quot;Helvetica Neue&amp;quot;; font-size-adjust: none; font-kerning: auto; font-variant-alternates: normal; font-variant-ligatures: normal; font-variant-numeric: normal; font-variant-east-asian: normal; font-variant-position: normal; font-variant-emoji: normal; font-feature-settings: normal; font-optical-sizing: auto; font-variation-settings: normal;&quot;&gt;height&lt;/p&gt;" style="ellipse;whiteSpace=wrap;html=1;" vertex="1" parent="1">
          <mxGeometry x="600" y="125" width="70" height="50" as="geometry" />
        </mxCell>
        <mxCell id="9fTh9ANXRrdNOfxA_5ho-136" value="" style="edgeStyle=orthogonalEdgeStyle;rounded=0;orthogonalLoop=1;jettySize=auto;html=1;endArrow=none;startFill=0;" edge="1" parent="1" source="9fTh9ANXRrdNOfxA_5ho-133">
          <mxGeometry relative="1" as="geometry">
            <mxPoint x="540" y="125" as="targetPoint" />
            <Array as="points">
              <mxPoint x="575" y="155" />
              <mxPoint x="540" y="155" />
            </Array>
          </mxGeometry>
        </mxCell>
        <mxCell id="9fTh9ANXRrdNOfxA_5ho-133" value="&lt;p style=&quot;margin: 0px; font-style: normal; font-variant-caps: normal; font-stretch: normal; font-size: 13px; line-height: normal; font-family: &amp;quot;Helvetica Neue&amp;quot;; font-size-adjust: none; font-kerning: auto; font-variant-alternates: normal; font-variant-ligatures: normal; font-variant-numeric: normal; font-variant-east-asian: normal; font-variant-position: normal; font-variant-emoji: normal; font-feature-settings: normal; font-optical-sizing: auto; font-variation-settings: normal;&quot;&gt;birthday&lt;/p&gt;" style="ellipse;whiteSpace=wrap;html=1;" vertex="1" parent="1">
          <mxGeometry x="540" y="165" width="70" height="50" as="geometry" />
        </mxCell>
        <mxCell id="9fTh9ANXRrdNOfxA_5ho-137" value="" style="edgeStyle=orthogonalEdgeStyle;rounded=0;orthogonalLoop=1;jettySize=auto;html=1;endArrow=none;startFill=0;" edge="1" parent="1" source="9fTh9ANXRrdNOfxA_5ho-134" target="9fTh9ANXRrdNOfxA_5ho-6">
          <mxGeometry relative="1" as="geometry">
            <Array as="points">
              <mxPoint x="515" y="145" />
              <mxPoint x="515" y="145" />
            </Array>
          </mxGeometry>
        </mxCell>
        <mxCell id="9fTh9ANXRrdNOfxA_5ho-134" value="&lt;p style=&quot;margin: 0px; font-style: normal; font-variant-caps: normal; font-stretch: normal; font-size: 13px; line-height: normal; font-family: &amp;quot;Helvetica Neue&amp;quot;; font-size-adjust: none; font-kerning: auto; font-variant-alternates: normal; font-variant-ligatures: normal; font-variant-numeric: normal; font-variant-east-asian: normal; font-variant-position: normal; font-variant-emoji: normal; font-feature-settings: normal; font-optical-sizing: auto; font-variation-settings: normal;&quot;&gt;weight&lt;/p&gt;" style="ellipse;whiteSpace=wrap;html=1;" vertex="1" parent="1">
          <mxGeometry x="460" y="175" width="70" height="50" as="geometry" />
        </mxCell>
      </root>
    </mxGraphModel>
  </diagram>
</mxfile>
